<?xml version="1.0" encoding="UTF-8"?>
<!DOCTYPE svg PUBLIC "-//W3C//DTD SVG 1.1//EN" "http://www.w3.org/Graphics/SVG/1.1/DTD/svg11.dtd">
<svg xmlns="http://www.w3.org/2000/svg" version="1.1" width="1920px" height="1920px" style="shape-rendering:geometricPrecision; text-rendering:geometricPrecision; image-rendering:optimizeQuality; fill-rule:evenodd; clip-rule:evenodd" xmlns:xlink="http://www.w3.org/1999/xlink">
<g><path style="opacity:1" fill="#fefefe" d="M -0.5,-0.5 C 639.5,-0.5 1279.5,-0.5 1919.5,-0.5C 1919.5,639.5 1919.5,1279.5 1919.5,1919.5C 1283.5,1919.5 647.5,1919.5 11.5,1919.5C 11.5,1912.83 11.5,1906.17 11.5,1899.5C 7.5,1899.5 3.5,1899.5 -0.5,1899.5C -0.5,1266.17 -0.5,632.833 -0.5,-0.5 Z"/></g>
<g><path style="opacity:1" fill="#242022" d="M 834.5,365.5 C 837.152,365.59 839.485,364.924 841.5,363.5C 893.912,351.135 946.912,348.135 1000.5,354.5C 1004.96,355.644 1009.63,356.31 1014.5,356.5C 1027.22,358.11 1039.89,360.11 1052.5,362.5C 1054.51,363.924 1056.85,364.59 1059.5,364.5C 1119.9,379.288 1175.07,404.954 1225,441.5C 1225.96,446.233 1224.46,450.066 1220.5,453C 1218.5,454.333 1216.5,455.667 1214.5,457C 1212.17,457.667 1209.83,457.667 1207.5,457C 1169.87,430.352 1129.2,409.852 1085.5,395.5C 1080.5,393.057 1075.17,391.39 1069.5,390.5C 1050.81,386.159 1032.15,382.159 1013.5,378.5C 1008.4,377.043 1003.07,376.376 997.5,376.5C 972.533,373.553 947.533,372.886 922.5,374.5C 916.288,374.523 910.288,375.19 904.5,376.5C 886.141,377.923 868.141,381.257 850.5,386.5C 848.102,386.259 846.102,386.926 844.5,388.5C 828.393,392.145 812.393,396.312 796.5,401C 793.167,401.667 789.833,401.667 786.5,401C 770.097,381.588 753.263,362.421 736,343.5C 695.028,301.619 648.528,267.452 596.5,241C 593.366,240.21 590.366,240.543 587.5,242C 584.067,245.042 581.234,248.542 579,252.5C 566.41,274.768 556.243,298.101 548.5,322.5C 546.926,324.102 546.259,326.102 546.5,328.5C 540.141,347.613 535.808,367.279 533.5,387.5C 531.368,395.899 530.368,404.565 530.5,413.5C 528.352,444.137 528.019,474.803 529.5,505.5C 547.152,489.008 565.819,473.841 585.5,460C 606.347,447.103 628.68,437.603 652.5,431.5C 658.731,429.994 665.064,429.327 671.5,429.5C 679.058,430.562 681.225,434.562 678,441.5C 674.635,446.186 670.135,449.353 664.5,451C 625.363,462.563 590.696,481.896 560.5,509C 492.934,572.299 454.268,650.132 444.5,742.5C 458.391,746.575 472.391,750.241 486.5,753.5C 488.515,754.924 490.848,755.59 493.5,755.5C 501.45,757.706 509.45,759.706 517.5,761.5C 519.515,762.924 521.848,763.59 524.5,763.5C 527.25,765.008 528.084,767.341 527,770.5C 524.501,781.673 517.668,785.506 506.5,782C 493.148,778.828 479.814,775.662 466.5,772.5C 463.745,771.629 461.912,770.296 461,768.5C 458.901,769.287 456.734,769.62 454.5,769.5C 451.123,769.041 447.789,768.374 444.5,767.5C 443.791,766.596 442.791,766.263 441.5,766.5C 441.17,784.008 441.503,801.341 442.5,818.5C 442.977,821.025 444.31,823.025 446.5,824.5C 466.336,825.349 486.336,826.016 506.5,826.5C 526.996,827.464 547.33,829.797 567.5,833.5C 570.273,834.657 573.273,835.324 576.5,835.5C 585.539,837.343 594.539,839.343 603.5,841.5C 605.515,842.924 607.848,843.59 610.5,843.5C 630.886,848.686 650.22,856.519 668.5,867C 673.872,872.811 673.538,878.478 667.5,884C 662.85,885.909 658.184,885.909 653.5,884C 639.728,878.132 625.728,872.966 611.5,868.5C 607.915,866.194 603.915,864.861 599.5,864.5C 593.427,863.482 587.427,862.148 581.5,860.5C 580.228,858.686 578.728,857.02 577,855.5C 576.383,856.449 576.549,857.282 577.5,858C 577,858.167 576.5,858.333 576,858.5C 571.701,858.094 569.034,857.094 568,855.5C 565.813,855.788 563.646,856.122 561.5,856.5C 547.266,854.175 532.933,852.508 518.5,851.5C 510.061,849.806 501.395,849.139 492.5,849.5C 489.167,849.5 485.833,849.5 482.5,849.5C 470.993,848.176 459.327,848.176 447.5,849.5C 447.624,850.107 447.957,850.44 448.5,850.5C 454.56,866.344 460.226,882.344 465.5,898.5C 486.884,893.988 508.217,889.154 529.5,884C 537.188,883.169 544.855,883.335 552.5,884.5C 555.361,888.655 556.195,893.322 555,898.5C 553.437,901.728 550.937,903.895 547.5,905C 526.887,908.789 506.22,912.455 485.5,916C 482.586,916.133 480.253,917.3 478.5,919.5C 546.326,1029.99 641.993,1104.99 765.5,1144.5C 769.502,1146.61 773.835,1147.94 778.5,1148.5C 783.378,1150.24 788.378,1151.57 793.5,1152.5C 796.505,1154.28 799.838,1155.28 803.5,1155.5C 813.373,1158.14 823.373,1160.14 833.5,1161.5C 835.515,1162.92 837.848,1163.59 840.5,1163.5C 849.47,1165.02 858.47,1166.35 867.5,1167.5C 874.601,1169.23 881.934,1170.23 889.5,1170.5C 925.265,1174.44 961.265,1175.44 997.5,1173.5C 1003.75,1173.82 1009.75,1173.15 1015.5,1171.5C 1030.88,1170.21 1046.21,1168.54 1061.5,1166.5C 1064.15,1166.59 1066.49,1165.92 1068.5,1164.5C 1162.41,1147.73 1246.75,1110.23 1321.5,1052C 1358.23,1020.78 1387.23,983.612 1408.5,940.5C 1403.1,939.644 1397.76,938.644 1392.5,937.5C 1388.41,936.105 1384.08,935.272 1379.5,935C 1377.04,934.604 1375.04,933.437 1373.5,931.5C 1371.13,933.223 1368.47,933.89 1365.5,933.5C 1347.8,931.245 1330.13,928.745 1312.5,926C 1306.72,918.705 1307.38,912.039 1314.5,906C 1315.79,905.51 1317.13,905.343 1318.5,905.5C 1323.48,906.053 1328.48,906.387 1333.5,906.5C 1349.48,908.591 1365.48,910.591 1381.5,912.5C 1384.63,913.581 1387.96,914.247 1391.5,914.5C 1400.52,916.004 1409.52,917.671 1418.5,919.5C 1422.3,903.183 1425.96,886.849 1429.5,870.5C 1430.04,870.44 1430.38,870.107 1430.5,869.5C 1427.02,868.194 1423.69,868.194 1420.5,869.5C 1415.31,869.179 1410.31,869.513 1405.5,870.5C 1398.29,870.458 1391.29,871.125 1384.5,872.5C 1375.46,872.686 1366.46,873.352 1357.5,874.5C 1351.92,874.255 1346.58,874.922 1341.5,876.5C 1306.91,880.648 1273.57,889.481 1241.5,903C 1232.49,904.997 1227.82,901.33 1227.5,892C 1227.39,888.087 1229.06,885.087 1232.5,883C 1253.89,874.925 1275.56,867.759 1297.5,861.5C 1300.15,861.59 1302.49,860.924 1304.5,859.5C 1308.74,858.319 1313.08,857.652 1317.5,857.5C 1319.73,857.38 1321.9,857.713 1324,858.5C 1331.15,856.342 1338.32,854.676 1345.5,853.5C 1366.32,851.46 1387.32,849.793 1408.5,848.5C 1416.5,848.5 1424.5,848.5 1432.5,848.5C 1432.74,847.209 1432.4,846.209 1431.5,845.5C 1430.29,837.886 1429.62,830.219 1429.5,822.5C 1429.38,817.951 1428.71,813.618 1427.5,809.5C 1425.98,793.141 1422.98,777.141 1418.5,761.5C 1418.59,758.848 1417.92,756.515 1416.5,754.5C 1404.6,705.009 1380.1,663.009 1343,628.5C 1334.97,620.83 1335.81,614.33 1345.5,609C 1349.45,608.088 1353.12,608.755 1356.5,611C 1368.6,622.933 1380.6,635.1 1392.5,647.5C 1406.62,620.596 1417.95,592.596 1426.5,563.5C 1428.47,560.916 1429.47,557.916 1429.5,554.5C 1436.03,528.535 1440.36,502.202 1442.5,475.5C 1443.31,473.369 1443.81,471.036 1444,468.5C 1444.83,453.661 1444.66,438.994 1443.5,424.5C 1443.07,416.126 1442.4,407.793 1441.5,399.5C 1436.88,398.507 1432.21,398.173 1427.5,398.5C 1421.27,398.388 1415.27,399.054 1409.5,400.5C 1403.07,400.443 1396.73,401.11 1390.5,402.5C 1386.01,403.34 1381.68,404.34 1377.5,405.5C 1372.36,406.368 1367.36,407.701 1362.5,409.5C 1355.83,410.724 1349.5,412.724 1343.5,415.5C 1298.5,430.499 1259.83,455.332 1227.5,490C 1214.28,491.113 1209.45,485.28 1213,472.5C 1236.09,447.078 1262.92,426.578 1293.5,411C 1331.08,391.409 1371.08,379.742 1413.5,376C 1429.16,375.5 1444.83,375.333 1460.5,375.5C 1463.76,404.734 1465.09,434.067 1464.5,463.5C 1463.18,473.974 1462.51,484.641 1462.5,495.5C 1462.5,497.5 1462.5,499.5 1462.5,501.5C 1461.11,506.269 1460.44,511.269 1460.5,516.5C 1458.27,530.873 1455.27,545.207 1451.5,559.5C 1450.26,561.214 1449.59,563.214 1449.5,565.5C 1446.91,574.119 1444.41,582.786 1442,591.5C 1430.94,618.002 1419.11,644.168 1406.5,670C 1413.1,684.046 1419.6,698.213 1426,712.5C 1443.04,755.067 1451.37,799.401 1451,845.5C 1458.23,847.282 1465.73,848.115 1473.5,848C 1478.15,849.323 1482.15,851.656 1485.5,855C 1484.13,859.951 1481.47,863.784 1477.5,866.5C 1473.96,866.753 1470.63,867.419 1467.5,868.5C 1461.83,868.5 1456.17,868.5 1450.5,868.5C 1450.5,869.833 1450.5,871.167 1450.5,872.5C 1445.98,888.953 1442.31,905.62 1439.5,922.5C 1448.22,924.681 1456.89,927.181 1465.5,930C 1472.06,934.599 1473.23,940.432 1469,947.5C 1468.25,948.126 1467.42,948.626 1466.5,949C 1457.78,948.937 1449.11,948.104 1440.5,946.5C 1438.88,945.028 1436.88,944.361 1434.5,944.5C 1432.95,944.511 1431.62,944.844 1430.5,945.5C 1429.12,946.574 1427.95,947.907 1427,949.5C 1409.11,992.762 1382.27,1029.6 1346.5,1060C 1330.76,1072.95 1314.92,1085.79 1299,1098.5C 1298.33,1099.5 1298.33,1100.5 1299,1101.5C 1313.75,1130.58 1326.25,1160.58 1336.5,1191.5C 1337.01,1196.7 1338.68,1201.37 1341.5,1205.5C 1348.52,1228.55 1354.52,1251.89 1359.5,1275.5C 1358.96,1280.31 1359.96,1284.65 1362.5,1288.5C 1364.87,1300.77 1366.87,1313.1 1368.5,1325.5C 1368.44,1330.73 1369.11,1335.73 1370.5,1340.5C 1373.28,1362.36 1374.95,1384.36 1375.5,1406.5C 1432.38,1391.48 1482.88,1364.82 1527,1326.5C 1530.42,1320.99 1530.09,1315.65 1526,1310.5C 1519.2,1301.37 1511.37,1293.2 1502.5,1286C 1475.83,1268.67 1449.17,1251.33 1422.5,1234C 1399.97,1219.17 1381.14,1200.67 1366,1178.5C 1362.88,1172.6 1360.05,1166.6 1357.5,1160.5C 1356.2,1155.61 1354.54,1150.94 1352.5,1146.5C 1350.25,1138.69 1348.92,1130.69 1348.5,1122.5C 1348.47,1111.82 1348.8,1101.15 1349.5,1090.5C 1353.89,1067.93 1366.89,1052.43 1388.5,1044C 1395.27,1041.24 1402.27,1039.41 1409.5,1038.5C 1420.48,1037.71 1431.48,1037.38 1442.5,1037.5C 1547.66,1049.14 1623.16,1102.47 1669,1197.5C 1677.98,1224.26 1679.98,1251.59 1675,1279.5C 1656.7,1354.77 1614.87,1412.93 1549.5,1454C 1505.72,1481.06 1459.38,1503.06 1410.5,1520C 1397.47,1524.59 1384.14,1527.92 1370.5,1530C 1368.21,1531.78 1366.54,1533.94 1365.5,1536.5C 1363.07,1541.79 1361.73,1547.45 1361.5,1553.5C 1351.21,1601.25 1325.55,1638.08 1284.5,1664C 1236.41,1689.85 1185.08,1700.85 1130.5,1697C 1123.48,1701.17 1116.82,1705.84 1110.5,1711C 1104.18,1714.27 1097.85,1717.43 1091.5,1720.5C 1089.03,1720.75 1087.03,1721.75 1085.5,1723.5C 1078.84,1724.83 1072.17,1726.17 1065.5,1727.5C 1054.48,1727.62 1043.48,1727.29 1032.5,1726.5C 1025.04,1725.24 1017.71,1723.41 1010.5,1721C 997.703,1714.77 985.036,1708.27 972.5,1701.5C 952.778,1724.2 927.778,1736.2 897.5,1737.5C 886.484,1737.58 875.484,1737.25 864.5,1736.5C 853.227,1734.85 842.56,1731.35 832.5,1726C 821.787,1716.95 810.787,1708.29 799.5,1700C 797.866,1699.51 796.199,1699.34 794.5,1699.5C 782.214,1700.93 769.881,1701.6 757.5,1701.5C 750.809,1701.55 744.143,1701.21 737.5,1700.5C 735.095,1699.23 732.428,1698.57 729.5,1698.5C 704.778,1692.98 680.778,1685.15 657.5,1675C 629.458,1662.29 606.958,1643.12 590,1617.5C 578.212,1598.13 569.545,1577.47 564,1555.5C 560.076,1538.29 556.909,1520.95 554.5,1503.5C 554.638,1498.59 553.972,1493.92 552.5,1489.5C 550.587,1462.88 550.087,1436.21 551,1409.5C 551.559,1392.72 553.059,1376.06 555.5,1359.5C 557.126,1352.39 558.126,1345.05 558.5,1337.5C 566.726,1279.27 581.226,1222.6 602,1167.5C 611.074,1147.01 619.907,1126.34 628.5,1105.5C 591.665,1081.45 557.831,1053.45 527,1021.5C 500.485,992.14 477.652,960.14 458.5,925.5C 456.926,924.369 455.259,924.202 453.5,925C 441.175,928.916 428.675,932.083 416,934.5C 409.148,934.315 405.648,930.815 405.5,924C 405.427,920.397 406.76,917.397 409.5,915C 421.182,910.913 433.182,908.08 445.5,906.5C 444.987,902.771 444.154,899.104 443,895.5C 438.01,880.368 432.51,865.368 426.5,850.5C 422.088,849.414 417.755,849.747 413.5,851.5C 407.939,851.956 402.606,852.956 397.5,854.5C 392.851,855.295 388.184,855.461 383.5,855C 377.153,847.111 378.486,840.778 387.5,836C 398.696,833.031 409.862,830.197 421,827.5C 421.667,805.167 421.667,782.833 421,760.5C 411.351,757.966 401.517,756.133 391.5,755C 382.179,753.814 378.012,748.648 379,739.5C 380.662,736.423 383.162,734.423 386.5,733.5C 393.52,733.502 400.52,733.835 407.5,734.5C 412.114,735.445 416.781,736.112 421.5,736.5C 424.463,714.445 429.13,692.778 435.5,671.5C 437.277,668.495 438.277,665.162 438.5,661.5C 448.721,627.39 463.554,595.39 483,565.5C 491,554.167 499,542.833 507,531.5C 508.015,527.235 508.515,522.902 508.5,518.5C 503.734,463.462 506.234,408.795 516,354.5C 518.001,345.003 520.501,335.67 523.5,326.5C 524.924,324.485 525.59,322.152 525.5,319.5C 528.778,307.164 532.945,295.164 538,283.5C 547.823,263.186 558.156,243.186 569,223.5C 572.891,216.722 578.724,214.222 586.5,216C 611.203,221.9 633.87,232.233 654.5,247C 706.493,282.32 752.16,324.653 791.5,374C 794.702,375.483 798.036,375.817 801.5,375C 812.407,371.358 823.407,368.191 834.5,365.5 Z"/></g>
<g><path style="opacity:1" fill="#252122" d="M 650.5,299.5 C 653.187,299.336 655.854,299.503 658.5,300C 694.252,334.62 720.586,375.453 737.5,422.5C 734.339,425.491 731.005,428.325 727.5,431C 722.903,433.54 719.07,432.707 716,428.5C 710.44,414.494 704.107,400.827 697,387.5C 680.491,363.149 663.491,339.149 646,315.5C 644.627,313.305 644.294,310.971 645,308.5C 646.63,305.371 648.464,302.371 650.5,299.5 Z"/></g>
<g><path style="opacity:1" fill="#656364" d="M 525.5,319.5 C 525.59,322.152 524.924,324.485 523.5,326.5C 523.41,323.848 524.076,321.515 525.5,319.5 Z"/></g>
<g><path style="opacity:1" fill="#aaa9aa" d="M 548.5,322.5 C 548.741,324.898 548.074,326.898 546.5,328.5C 546.259,326.102 546.926,324.102 548.5,322.5 Z"/></g>
<g><path style="opacity:1" fill="#969495" d="M 1000.5,354.5 C 1005.45,354.123 1010.12,354.789 1014.5,356.5C 1009.63,356.31 1004.96,355.644 1000.5,354.5 Z"/></g>
<g><path style="opacity:1" fill="#8c8b8c" d="M 1052.5,362.5 C 1055.15,362.41 1057.49,363.076 1059.5,364.5C 1056.85,364.59 1054.51,363.924 1052.5,362.5 Z"/></g>
<g><path style="opacity:1" fill="#6a6869" d="M 841.5,363.5 C 839.485,364.924 837.152,365.59 834.5,365.5C 836.515,364.076 838.848,363.41 841.5,363.5 Z"/></g>
<g><path style="opacity:1" fill="#c8c7c7" d="M 922.5,374.5 C 916.739,376.057 910.739,376.724 904.5,376.5C 910.288,375.19 916.288,374.523 922.5,374.5 Z"/></g>
<g><path style="opacity:1" fill="#646363" d="M 997.5,376.5 C 1003.07,376.376 1008.4,377.043 1013.5,378.5C 1007.93,378.624 1002.6,377.957 997.5,376.5 Z"/></g>
<g><path style="opacity:1" fill="#b0afaf" d="M 850.5,386.5 C 848.898,388.074 846.898,388.741 844.5,388.5C 846.102,386.926 848.102,386.259 850.5,386.5 Z"/></g>
<g><path style="opacity:1" fill="#5e5b5c" d="M 1069.5,390.5 C 1075.17,391.39 1080.5,393.057 1085.5,395.5C 1079.83,394.61 1074.5,392.943 1069.5,390.5 Z"/></g>
<g><path style="opacity:1" fill="#acabab" d="M 533.5,387.5 C 532.974,396.361 531.974,405.028 530.5,413.5C 530.368,404.565 531.368,395.899 533.5,387.5 Z"/></g>
<g><path style="opacity:1" fill="#bfbebf" d="M 1427.5,398.5 C 1421.73,399.946 1415.73,400.612 1409.5,400.5C 1415.27,399.054 1421.27,398.388 1427.5,398.5 Z"/></g>
<g><path style="opacity:1" fill="#bdbbbc" d="M 1390.5,402.5 C 1386.65,405.035 1382.31,406.035 1377.5,405.5C 1381.68,404.34 1386.01,403.34 1390.5,402.5 Z"/></g>
<g><path style="opacity:1" fill="#c7c6c6" d="M 1362.5,409.5 C 1356.5,412.276 1350.17,414.276 1343.5,415.5C 1349.5,412.724 1355.83,410.724 1362.5,409.5 Z"/></g>
<g><path style="opacity:1" fill="#252122" d="M 1389.5,422.5 C 1401.16,420.323 1405.99,424.99 1404,436.5C 1402.62,438.754 1401.12,440.92 1399.5,443C 1382,453.253 1364.33,463.253 1346.5,473C 1321.96,487.533 1303.79,507.7 1292,533.5C 1290.83,535.333 1289.33,536.833 1287.5,538C 1281.88,539.276 1276.71,538.443 1272,535.5C 1269.59,531.858 1268.93,527.858 1270,523.5C 1283.09,497.745 1301.25,476.245 1324.5,459C 1345.07,444.934 1366.74,432.767 1389.5,422.5 Z"/></g>
<g><path style="opacity:1" fill="#4d4a4b" d="M 671.5,429.5 C 665.064,429.327 658.731,429.994 652.5,431.5C 658.629,428.573 664.962,427.907 671.5,429.5 Z"/></g>
<g><path style="opacity:1" fill="#7c7a7b" d="M 1443.5,424.5 C 1444.66,438.994 1444.83,453.661 1444,468.5C 1443.81,471.036 1443.31,473.369 1442.5,475.5C 1443.32,458.513 1443.65,441.513 1443.5,424.5 Z"/></g>
<g><path style="opacity:1" fill="#474445" d="M 1464.5,463.5 C 1464.76,474.376 1464.09,485.042 1462.5,495.5C 1462.51,484.641 1463.18,473.974 1464.5,463.5 Z"/></g>
<g><path style="opacity:1" fill="#a8a6a7" d="M 1462.5,501.5 C 1462.7,506.75 1462.03,511.75 1460.5,516.5C 1460.44,511.269 1461.11,506.269 1462.5,501.5 Z"/></g>
<g><path style="opacity:1" fill="#7f7d7e" d="M 1429.5,554.5 C 1429.47,557.916 1428.47,560.916 1426.5,563.5C 1426.93,560.215 1427.93,557.215 1429.5,554.5 Z"/></g>
<g><path style="opacity:1" fill="#888788" d="M 1451.5,559.5 C 1451.74,561.898 1451.07,563.898 1449.5,565.5C 1449.59,563.214 1450.26,561.214 1451.5,559.5 Z"/></g>
<g><path style="opacity:1" fill="#656364" d="M 438.5,661.5 C 438.277,665.162 437.277,668.495 435.5,671.5C 435.723,667.838 436.723,664.505 438.5,661.5 Z"/></g>
<g><path style="opacity:1" fill="#242021" d="M 809.5,795.5 C 809.41,798.152 810.076,800.485 811.5,802.5C 814.236,811.128 811.902,817.961 804.5,823C 799.042,823.851 795.209,821.685 793,816.5C 788.261,797.024 780.261,779.024 769,762.5C 756.044,749.381 741.211,746.881 724.5,755C 704.189,767.412 691.023,785.246 685,808.5C 682.531,816.882 677.031,820.049 668.5,818C 664.831,815.495 663.165,811.995 663.5,807.5C 663.892,802.999 664.892,798.666 666.5,794.5C 667.924,792.485 668.59,790.152 668.5,787.5C 678.255,763.242 694.588,744.742 717.5,732C 757.956,721.312 786.456,735.145 803,773.5C 805.281,780.839 807.448,788.172 809.5,795.5 Z"/></g>
<g><path style="opacity:1" fill="#727071" d="M 386.5,733.5 C 393.564,732.104 400.564,732.437 407.5,734.5C 400.52,733.835 393.52,733.502 386.5,733.5 Z"/></g>
<g><path style="opacity:1" fill="#9c9a9b" d="M 486.5,753.5 C 489.152,753.41 491.485,754.076 493.5,755.5C 490.848,755.59 488.515,754.924 486.5,753.5 Z"/></g>
<g><path style="opacity:1" fill="#afadae" d="M 1416.5,754.5 C 1417.92,756.515 1418.59,758.848 1418.5,761.5C 1416.84,759.562 1416.17,757.228 1416.5,754.5 Z"/></g>
<g><path style="opacity:1" fill="#a5a3a4" d="M 517.5,761.5 C 520.152,761.41 522.485,762.076 524.5,763.5C 521.848,763.59 519.515,762.924 517.5,761.5 Z"/></g>
<g><path style="opacity:1" fill="#4f4d4e" d="M 466.5,772.5 C 462.404,771.492 458.404,770.492 454.5,769.5C 456.734,769.62 458.901,769.287 461,768.5C 461.912,770.296 463.745,771.629 466.5,772.5 Z"/></g>
<g><path style="opacity:1" fill="#676566" d="M 1147.5,771.5 C 1140.82,771.612 1134.15,771.946 1127.5,772.5C 1134.1,770.457 1140.77,770.123 1147.5,771.5 Z"/></g>
<g><path style="opacity:1" fill="#a6a5a5" d="M 1148.5,771.5 C 1151.23,771.171 1153.56,771.837 1155.5,773.5C 1152.93,773.279 1150.6,772.612 1148.5,771.5 Z"/></g>
<g><path style="opacity:1" fill="#252122" d="M 1147.5,771.5 C 1147.83,771.5 1148.17,771.5 1148.5,771.5C 1150.6,772.612 1152.93,773.279 1155.5,773.5C 1172.19,778.359 1185.36,788.026 1195,802.5C 1205.52,820.069 1212.85,838.736 1217,858.5C 1213.99,862.846 1210.32,866.512 1206,869.5C 1200.72,866.646 1197.05,862.313 1195,856.5C 1190.14,844.695 1185.14,833.029 1180,821.5C 1173.78,810.949 1165.28,802.783 1154.5,797C 1139.78,791.901 1126.45,794.234 1114.5,804C 1097.28,820.277 1086.78,840.11 1083,863.5C 1076.74,867.74 1070.74,867.407 1065,862.5C 1064.07,860.091 1063.57,857.591 1063.5,855C 1067.55,826.9 1080.21,803.567 1101.5,785C 1109.27,778.948 1117.94,774.782 1127.5,772.5C 1134.15,771.946 1140.82,771.612 1147.5,771.5 Z"/></g>
<g><path style="opacity:1" fill="#676566" d="M 444.5,767.5 C 442.514,784.134 441.848,801.134 442.5,818.5C 441.503,801.341 441.17,784.008 441.5,766.5C 442.791,766.263 443.791,766.596 444.5,767.5 Z"/></g>
<g><path style="opacity:1" fill="#797778" d="M 668.5,787.5 C 668.59,790.152 667.924,792.485 666.5,794.5C 666.41,791.848 667.076,789.515 668.5,787.5 Z"/></g>
<g><path style="opacity:1" fill="#6b696a" d="M 809.5,795.5 C 810.924,797.515 811.59,799.848 811.5,802.5C 810.076,800.485 809.41,798.152 809.5,795.5 Z"/></g>
<g><path style="opacity:1" fill="#a9a8a8" d="M 1427.5,809.5 C 1428.71,813.618 1429.38,817.951 1429.5,822.5C 1427.82,818.455 1427.16,814.122 1427.5,809.5 Z"/></g>
<g><path style="opacity:1" fill="#d3d2d2" d="M 446.5,824.5 C 462.503,824.333 478.503,824.5 494.5,825C 498.688,825.176 502.688,825.676 506.5,826.5C 486.336,826.016 466.336,825.349 446.5,824.5 Z"/></g>
<g><path style="opacity:1" fill="#b2b0b1" d="M 567.5,833.5 C 570.187,833.336 572.854,833.503 575.5,834C 576.056,834.383 576.389,834.883 576.5,835.5C 573.273,835.324 570.273,834.657 567.5,833.5 Z"/></g>
<g><path style="opacity:1" fill="#a6a4a5" d="M 603.5,841.5 C 606.152,841.41 608.485,842.076 610.5,843.5C 607.848,843.59 605.515,842.924 603.5,841.5 Z"/></g>
<g><path style="opacity:1" fill="#757273" d="M 1431.5,845.5 C 1432.4,846.209 1432.74,847.209 1432.5,848.5C 1424.5,848.5 1416.5,848.5 1408.5,848.5C 1416.39,848.153 1424.05,847.153 1431.5,845.5 Z"/></g>
<g><path style="opacity:1" fill="#bcbabb" d="M 482.5,849.5 C 470.988,849.172 459.654,849.505 448.5,850.5C 447.957,850.44 447.624,850.107 447.5,849.5C 459.327,848.176 470.993,848.176 482.5,849.5 Z"/></g>
<g><path style="opacity:1" fill="#7d7b7c" d="M 492.5,849.5 C 501.395,849.139 510.061,849.806 518.5,851.5C 509.648,851.311 500.981,850.645 492.5,849.5 Z"/></g>
<g><path style="opacity:1" fill="#c8c7c7" d="M 413.5,851.5 C 408.527,853.76 403.194,854.76 397.5,854.5C 402.606,852.956 407.939,851.956 413.5,851.5 Z"/></g>
<g><path style="opacity:1" fill="#242122" d="M 972.5,890.5 C 967.014,892.325 961.681,894.325 956.5,896.5C 951.85,912.271 955.516,926.105 967.5,938C 971.964,941.565 976.964,944.065 982.5,945.5C 986.738,947.956 991.404,948.956 996.5,948.5C 1012.07,949.462 1024.57,943.795 1034,931.5C 1036.95,924.423 1040.78,917.923 1045.5,912C 1049.17,911.333 1052.83,911.333 1056.5,912C 1059.41,913.406 1061.41,915.572 1062.5,918.5C 1062.78,923.327 1062.11,927.993 1060.5,932.5C 1050.11,954.038 1033.11,967.205 1009.5,972C 990.883,974.762 973.883,970.762 958.5,960C 952.35,954.684 946.35,949.184 940.5,943.5C 921.875,961.647 899.875,968.647 874.5,964.5C 872.485,963.076 870.152,962.41 867.5,962.5C 845.578,953.051 832.744,936.384 829,912.5C 826.566,903.779 829.733,898.446 838.5,896.5C 842.151,896.743 844.984,898.41 847,901.5C 849.358,916.064 856.191,927.898 867.5,937C 890.835,947.005 911.001,942.505 928,923.5C 929.559,921.783 930.392,919.783 930.5,917.5C 932.25,913.817 932.917,909.817 932.5,905.5C 932.665,902.482 932.498,899.482 932,896.5C 917.272,890.105 906.939,879.439 901,864.5C 899.339,853.163 904.172,847.996 915.5,849C 920.123,855.292 925.123,861.292 930.5,867C 946.713,874.946 960.713,872.112 972.5,858.5C 978.157,855.037 982.657,856.037 986,861.5C 987.447,873.939 982.947,883.606 972.5,890.5 Z"/></g>
<g><path style="opacity:1" fill="#454243" d="M 581.5,860.5 C 574.627,859.581 567.96,858.247 561.5,856.5C 563.646,856.122 565.813,855.788 568,855.5C 569.034,857.094 571.701,858.094 576,858.5C 576.5,858.333 577,858.167 577.5,858C 576.549,857.282 576.383,856.449 577,855.5C 578.728,857.02 580.228,858.686 581.5,860.5 Z"/></g>
<g><path style="opacity:1" fill="#444243" d="M 1345.5,853.5 C 1338.32,854.676 1331.15,856.342 1324,858.5C 1321.9,857.713 1319.73,857.38 1317.5,857.5C 1326.56,855.198 1335.9,853.865 1345.5,853.5 Z"/></g>
<g><path style="opacity:1" fill="#757374" d="M 1304.5,859.5 C 1302.49,860.924 1300.15,861.59 1297.5,861.5C 1299.51,860.076 1301.85,859.41 1304.5,859.5 Z"/></g>
<g><path style="opacity:1" fill="#696767" d="M 599.5,864.5 C 603.915,864.861 607.915,866.194 611.5,868.5C 607.216,867.739 603.216,866.405 599.5,864.5 Z"/></g>
<g><path style="opacity:1" fill="#8d8b8c" d="M 1477.5,866.5 C 1474.49,868.175 1471.16,868.841 1467.5,868.5C 1470.63,867.419 1473.96,866.753 1477.5,866.5 Z"/></g>
<g><path style="opacity:1" fill="#aba9aa" d="M 1420.5,869.5 C 1423.69,868.194 1427.02,868.194 1430.5,869.5C 1430.38,870.107 1430.04,870.44 1429.5,870.5C 1426.71,869.523 1423.71,869.19 1420.5,869.5 Z"/></g>
<g><path style="opacity:1" fill="#c8c6c7" d="M 1467.5,868.5 C 1462.36,869.488 1457.03,869.821 1451.5,869.5C 1451.74,870.791 1451.4,871.791 1450.5,872.5C 1450.5,871.167 1450.5,869.833 1450.5,868.5C 1456.17,868.5 1461.83,868.5 1467.5,868.5 Z"/></g>
<g><path style="opacity:1" fill="#bcbbbb" d="M 1405.5,870.5 C 1398.71,871.875 1391.71,872.542 1384.5,872.5C 1391.29,871.125 1398.29,870.458 1405.5,870.5 Z"/></g>
<g><path style="opacity:1" fill="#c6c5c6" d="M 1357.5,874.5 C 1352.38,875.806 1347.05,876.473 1341.5,876.5C 1346.58,874.922 1351.92,874.255 1357.5,874.5 Z"/></g>
<g><path style="opacity:1" fill="#c6c5c5" d="M 972.5,890.5 C 972.53,891.497 972.03,892.164 971,892.5C 966.267,894.358 961.433,895.691 956.5,896.5C 961.681,894.325 967.014,892.325 972.5,890.5 Z"/></g>
<g><path style="opacity:1" fill="#6d6b6c" d="M 641.5,899.5 C 639.485,900.924 637.152,901.59 634.5,901.5C 636.515,900.076 638.848,899.41 641.5,899.5 Z"/></g>
<g><path style="opacity:1" fill="#252122" d="M 644.5,923.5 C 639.085,924.194 634.085,925.86 629.5,928.5C 607.835,937.164 587.835,948.664 569.5,963C 566.167,964.667 562.833,966.333 559.5,968C 548.871,969.644 545.038,965.144 548,954.5C 572.552,929.809 601.386,912.142 634.5,901.5C 637.152,901.59 639.485,900.924 641.5,899.5C 649.954,897.261 658.454,895.261 667,893.5C 672.821,896.15 676.655,900.483 678.5,906.5C 678.032,911.275 675.699,914.775 671.5,917C 662.452,919.24 653.452,921.407 644.5,923.5 Z"/></g>
<g><path style="opacity:1" fill="#b8b7b8" d="M 1318.5,905.5 C 1323.57,904.284 1328.57,904.617 1333.5,906.5C 1328.48,906.387 1323.48,906.053 1318.5,905.5 Z"/></g>
<g><path style="opacity:1" fill="#a9a8a8" d="M 932.5,905.5 C 932.917,909.817 932.25,913.817 930.5,917.5C 930.851,913.316 931.518,909.316 932.5,905.5 Z"/></g>
<g><path style="opacity:1" fill="#b3b2b3" d="M 1381.5,912.5 C 1384.52,912.335 1387.52,912.502 1390.5,913C 1391.06,913.383 1391.39,913.883 1391.5,914.5C 1387.96,914.247 1384.63,913.581 1381.5,912.5 Z"/></g>
<g><path style="opacity:1" fill="#c9c8c8" d="M 644.5,923.5 C 639.854,925.977 634.854,927.644 629.5,928.5C 634.085,925.86 639.085,924.194 644.5,923.5 Z"/></g>
<g><path style="opacity:1" fill="#c0bebf" d="M 1062.5,918.5 C 1063.64,921.64 1063.81,924.973 1063,928.5C 1062.8,930.32 1061.97,931.653 1060.5,932.5C 1062.11,927.993 1062.78,923.327 1062.5,918.5 Z"/></g>
<g><path style="opacity:1" fill="#474445" d="M 1392.5,937.5 C 1383.26,936.902 1374.26,935.569 1365.5,933.5C 1368.47,933.89 1371.13,933.223 1373.5,931.5C 1375.04,933.437 1377.04,934.604 1379.5,935C 1384.08,935.272 1388.41,936.105 1392.5,937.5 Z"/></g>
<g><path style="opacity:1" fill="#252122" d="M 1217.5,932.5 C 1239.8,940.544 1261.46,950.044 1282.5,961C 1303.58,974.747 1321.41,991.914 1336,1012.5C 1338.3,1023.17 1334.14,1029.01 1323.5,1030C 1309.06,1013.22 1293.06,998.223 1275.5,985C 1257.22,973.026 1237.55,964.026 1216.5,958C 1211.12,953.747 1208.62,948.247 1209,941.5C 1212.04,938.631 1214.87,935.631 1217.5,932.5 Z"/></g>
<g><path style="opacity:1" fill="#6b6768" d="M 1430.5,945.5 C 1431.62,944.844 1432.95,944.511 1434.5,944.5C 1436.88,944.361 1438.88,945.028 1440.5,946.5C 1437.19,945.949 1433.86,945.616 1430.5,945.5 Z"/></g>
<g><path style="opacity:1" fill="#a7a6a7" d="M 982.5,945.5 C 987.283,946.509 991.95,947.509 996.5,948.5C 991.404,948.956 986.738,947.956 982.5,945.5 Z"/></g>
<g><path style="opacity:1" fill="#252122" d="M 1315.5,944.5 C 1329.66,949.5 1343.66,955 1357.5,961C 1363.62,965.559 1364.12,970.726 1359,976.5C 1355.9,980.966 1351.73,982.466 1346.5,981C 1334.27,975.639 1322.77,969.139 1312,961.5C 1310.36,957.62 1309.69,953.62 1310,949.5C 1311.81,947.7 1313.65,946.033 1315.5,944.5 Z"/></g>
<g><path style="opacity:1" fill="#615f60" d="M 867.5,962.5 C 870.152,962.41 872.485,963.076 874.5,964.5C 871.848,964.59 869.515,963.924 867.5,962.5 Z"/></g>
<g><path style="opacity:1" fill="#565455" d="M 1442.5,1037.5 C 1431.48,1037.38 1420.48,1037.71 1409.5,1038.5C 1410.61,1037.71 1411.94,1037.21 1413.5,1037C 1423.34,1036.18 1433.01,1036.34 1442.5,1037.5 Z"/></g>
<g><path style="opacity:1" fill="#9d9b9c" d="M 1441.5,1059.5 C 1430.8,1059.65 1420.13,1060.32 1409.5,1061.5C 1420.07,1058.84 1430.74,1058.18 1441.5,1059.5 Z"/></g>
<g><path style="opacity:1" fill="#fdfdfd" d="M 1441.5,1059.5 C 1523.58,1068.1 1587.41,1106.43 1633,1174.5C 1647.86,1196.73 1655.7,1221.23 1656.5,1248C 1656.06,1255.86 1655.4,1263.69 1654.5,1271.5C 1652.9,1275.24 1651.9,1279.24 1651.5,1283.5C 1631.63,1351.21 1591.29,1403.05 1530.5,1439C 1482.36,1467.74 1431.36,1489.9 1377.5,1505.5C 1375.83,1505.5 1374.17,1505.5 1372.5,1505.5C 1372.5,1501.83 1372.5,1498.17 1372.5,1494.5C 1373.29,1476.83 1374.12,1459.17 1375,1441.5C 1374.6,1436.79 1376.44,1433.29 1380.5,1431C 1438.59,1414.29 1490.59,1386.63 1536.5,1348C 1555.6,1331.57 1571.77,1312.74 1585,1291.5C 1596.35,1268.68 1599.85,1244.68 1595.5,1219.5C 1595.59,1216.85 1594.92,1214.51 1593.5,1212.5C 1592.08,1201.59 1587.74,1192.09 1580.5,1184C 1577.07,1181.93 1573.4,1181.26 1569.5,1182C 1567.95,1183.21 1566.78,1184.71 1566,1186.5C 1565.33,1190.17 1565.33,1193.83 1566,1197.5C 1569.31,1207.42 1572.31,1217.42 1575,1227.5C 1577.72,1250.29 1572.72,1271.29 1560,1290.5C 1556.98,1295.89 1553.48,1300.89 1549.5,1305.5C 1541.48,1292.64 1531.48,1281.48 1519.5,1272C 1492.85,1253.34 1465.51,1235.67 1437.5,1219C 1413.62,1204.78 1394.78,1185.62 1381,1161.5C 1377.79,1154.37 1375.29,1147.04 1373.5,1139.5C 1373.1,1135.88 1372.1,1132.55 1370.5,1129.5C 1368.92,1119.55 1368.42,1109.55 1369,1099.5C 1370.95,1085.76 1377.78,1075.26 1389.5,1068C 1395.89,1064.93 1402.56,1062.76 1409.5,1061.5C 1420.13,1060.32 1430.8,1059.65 1441.5,1059.5 Z"/></g>
<g><path style="opacity:1" fill="#a6a6a6" d="M 1349.5,1090.5 C 1348.8,1101.15 1348.47,1111.82 1348.5,1122.5C 1347.83,1118.68 1347.5,1114.68 1347.5,1110.5C 1347.39,1103.61 1348.06,1096.94 1349.5,1090.5 Z"/></g>
<g><path style="opacity:1" fill="#fefefe" d="M 1320.5,1212.5 C 1320.86,1216.92 1322.19,1220.92 1324.5,1224.5C 1338.76,1273.21 1348.09,1322.88 1352.5,1373.5C 1352.24,1382.72 1352.9,1391.72 1354.5,1400.5C 1355.76,1435 1354.09,1469.33 1349.5,1503.5C 1348.1,1507.59 1347.44,1511.92 1347.5,1516.5C 1345.63,1526.52 1343.63,1536.52 1341.5,1546.5C 1340.08,1548.51 1339.41,1550.85 1339.5,1553.5C 1325.62,1602.88 1294.95,1637.38 1247.5,1657C 1226.48,1665.05 1204.81,1670.72 1182.5,1674C 1169.47,1674.78 1156.47,1674.61 1143.5,1673.5C 1146.17,1647.9 1147,1622.23 1146,1596.5C 1144.58,1586.86 1139.08,1583.36 1129.5,1586C 1128.33,1587.17 1127.17,1588.33 1126,1589.5C 1125.75,1609.85 1125.25,1630.18 1124.5,1650.5C 1123.06,1653.94 1122.06,1657.6 1121.5,1661.5C 1116.09,1678.58 1105.09,1690.58 1088.5,1697.5C 1086.03,1697.75 1084.03,1698.75 1082.5,1700.5C 1052.98,1709.64 1024.98,1706.48 998.5,1691C 991.919,1687.42 987.086,1682.25 984,1675.5C 983.268,1669.38 983.768,1663.38 985.5,1657.5C 986.222,1657.08 986.722,1656.42 987,1655.5C 987.497,1652.85 987.664,1650.19 987.5,1647.5C 988.596,1636.87 988.763,1626.2 988,1615.5C 985.062,1595.14 981.228,1574.98 976.5,1555C 985.47,1535.56 994.304,1516.06 1003,1496.5C 1017.16,1460.17 1028,1422.84 1035.5,1384.5C 1035.88,1381.68 1034.88,1379.51 1032.5,1378C 1027.05,1374.92 1021.72,1374.92 1016.5,1378C 1015.42,1379.33 1014.75,1380.83 1014.5,1382.5C 1012.96,1384.84 1012.29,1387.5 1012.5,1390.5C 1010,1401.52 1007.33,1412.52 1004.5,1423.5C 1003.08,1425.51 1002.41,1427.85 1002.5,1430.5C 992.689,1461.08 981.356,1491.08 968.5,1520.5C 951.375,1475.96 936.542,1430.63 924,1384.5C 923.303,1377.71 921.969,1371.04 920,1364.5C 916.283,1358.43 911.116,1356.93 904.5,1360C 898.501,1363.59 896.835,1368.76 899.5,1375.5C 899.259,1377.9 899.926,1379.9 901.5,1381.5C 903.372,1387.78 905.039,1394.12 906.5,1400.5C 906.528,1403.92 907.528,1406.92 909.5,1409.5C 920.565,1446.69 932.232,1483.69 944.5,1520.5C 945.194,1525.92 946.86,1530.92 949.5,1535.5C 951.039,1540.78 952.373,1546.12 953.5,1551.5C 953.41,1554.15 954.076,1556.49 955.5,1558.5C 957.883,1567.75 959.883,1577.08 961.5,1586.5C 961.322,1590.12 961.989,1593.46 963.5,1596.5C 966.441,1614.11 966.941,1631.77 965,1649.5C 960.839,1687.83 939.672,1709.49 901.5,1714.5C 890.15,1714.59 878.817,1714.26 867.5,1713.5C 834.688,1708.69 815.354,1690.02 809.5,1657.5C 809.142,1653.49 808.642,1649.49 808,1645.5C 807.799,1627.66 807.633,1609.99 807.5,1592.5C 801.865,1585.92 796.032,1585.92 790,1592.5C 788.956,1594.71 788.29,1597.05 788,1599.5C 785.769,1618.82 785.436,1638.15 787,1657.5C 788.746,1664.23 790.579,1670.9 792.5,1677.5C 771.749,1679.22 751.083,1678.56 730.5,1675.5C 728.162,1673.96 725.495,1673.29 722.5,1673.5C 689.34,1666.75 659.34,1653.25 632.5,1633C 610.512,1613.19 595.512,1589.03 587.5,1560.5C 587.59,1557.85 586.924,1555.51 585.5,1553.5C 570.874,1484.3 568.54,1414.63 578.5,1344.5C 580.795,1334.06 582.462,1323.39 583.5,1312.5C 585.049,1303.43 586.715,1294.43 588.5,1285.5C 589.924,1283.49 590.59,1281.15 590.5,1278.5C 591.293,1274.12 592.293,1269.79 593.5,1265.5C 594.768,1263.09 595.435,1260.43 595.5,1257.5C 596.924,1255.49 597.59,1253.15 597.5,1250.5C 609.709,1204.11 626.875,1159.78 649,1117.5C 693.895,1144.54 741.728,1164.2 792.5,1176.5C 794.515,1177.92 796.848,1178.59 799.5,1178.5C 801.838,1180.04 804.505,1180.71 807.5,1180.5C 817.419,1182.88 827.419,1184.88 837.5,1186.5C 841.267,1187.79 845.267,1188.46 849.5,1188.5C 859.799,1190.08 870.133,1191.41 880.5,1192.5C 887.62,1193.93 894.953,1194.59 902.5,1194.5C 970.742,1199.95 1038.41,1195.28 1105.5,1180.5C 1108.15,1180.59 1110.49,1179.92 1112.5,1178.5C 1171.57,1164.29 1226.91,1141.29 1278.5,1109.5C 1281.17,1112.83 1283.34,1116.5 1285,1120.5C 1299.09,1150.27 1310.92,1180.94 1320.5,1212.5 Z"/></g>
<g><path style="opacity:1" fill="#959293" d="M 1370.5,1129.5 C 1372.1,1132.55 1373.1,1135.88 1373.5,1139.5C 1371.59,1136.55 1370.59,1133.21 1370.5,1129.5 Z"/></g>
<g><path style="opacity:1" fill="#b3b2b3" d="M 765.5,1144.5 C 770.165,1145.06 774.498,1146.39 778.5,1148.5C 773.835,1147.94 769.502,1146.61 765.5,1144.5 Z"/></g>
<g><path style="opacity:1" fill="#a19fa0" d="M 1352.5,1146.5 C 1354.54,1150.94 1356.2,1155.61 1357.5,1160.5C 1354.68,1156.37 1353.01,1151.7 1352.5,1146.5 Z"/></g>
<g><path style="opacity:1" fill="#aeacad" d="M 793.5,1152.5 C 797.162,1152.72 800.495,1153.72 803.5,1155.5C 799.838,1155.28 796.505,1154.28 793.5,1152.5 Z"/></g>
<g><path style="opacity:1" fill="#9d9a9b" d="M 833.5,1161.5 C 836.152,1161.41 838.485,1162.08 840.5,1163.5C 837.848,1163.59 835.515,1162.92 833.5,1161.5 Z"/></g>
<g><path style="opacity:1" fill="#656364" d="M 1068.5,1164.5 C 1066.49,1165.92 1064.15,1166.59 1061.5,1166.5C 1063.51,1165.08 1065.85,1164.41 1068.5,1164.5 Z"/></g>
<g><path style="opacity:1" fill="#b2b1b2" d="M 867.5,1167.5 C 875.08,1167.66 882.414,1168.66 889.5,1170.5C 881.934,1170.23 874.601,1169.23 867.5,1167.5 Z"/></g>
<g><path style="opacity:1" fill="#868485" d="M 1015.5,1171.5 C 1009.75,1173.15 1003.75,1173.82 997.5,1173.5C 1003.29,1172.19 1009.29,1171.52 1015.5,1171.5 Z"/></g>
<g><path style="opacity:1" fill="#605d5e" d="M 792.5,1176.5 C 795.152,1176.41 797.485,1177.08 799.5,1178.5C 796.848,1178.59 794.515,1177.92 792.5,1176.5 Z"/></g>
<g><path style="opacity:1" fill="#868485" d="M 799.5,1178.5 C 802.428,1178.57 805.095,1179.23 807.5,1180.5C 804.505,1180.71 801.838,1180.04 799.5,1178.5 Z"/></g>
<g><path style="opacity:1" fill="#969495" d="M 1112.5,1178.5 C 1110.49,1179.92 1108.15,1180.59 1105.5,1180.5C 1107.51,1179.08 1109.85,1178.41 1112.5,1178.5 Z"/></g>
<g><path style="opacity:1" fill="#4e4b4c" d="M 849.5,1188.5 C 845.267,1188.46 841.267,1187.79 837.5,1186.5C 839.857,1186.66 842.19,1186.5 844.5,1186C 843.5,1185.67 842.5,1185.33 841.5,1185C 842.167,1184.83 842.833,1184.67 843.5,1184.5C 844.567,1186.56 846.567,1187.9 849.5,1188.5 Z"/></g>
<g><path style="opacity:1" fill="#6a6768" d="M 880.5,1192.5 C 888.047,1192.41 895.38,1193.07 902.5,1194.5C 894.953,1194.59 887.62,1193.93 880.5,1192.5 Z"/></g>
<g><path style="opacity:1" fill="#6e6b6c" d="M 1336.5,1191.5 C 1338.54,1195.94 1340.2,1200.61 1341.5,1205.5C 1338.68,1201.37 1337.01,1196.7 1336.5,1191.5 Z"/></g>
<g><path style="opacity:1" fill="#242021" d="M 684.5,1265.5 C 683.834,1271.16 683.501,1276.99 683.5,1283C 683.279,1291.07 683.945,1298.9 685.5,1306.5C 687.36,1326.8 691.026,1346.8 696.5,1366.5C 696.41,1369.15 697.076,1371.49 698.5,1373.5C 714.047,1417.55 738.714,1455.72 772.5,1488C 805.881,1517.71 838.381,1548.54 870,1580.5C 874.667,1585.83 879.333,1591.17 884,1596.5C 884.654,1604.51 880.988,1609.18 873,1610.5C 871.033,1610.46 869.199,1609.96 867.5,1609C 827.619,1571.78 788.453,1533.95 750,1495.5C 715.856,1461.9 691.356,1422.23 676.5,1376.5C 676.277,1372.84 675.277,1369.5 673.5,1366.5C 671.344,1357.54 669.344,1348.54 667.5,1339.5C 667.247,1335.96 666.581,1332.63 665.5,1329.5C 664.443,1323.55 663.776,1317.55 663.5,1311.5C 662.587,1294.19 662.254,1276.85 662.5,1259.5C 664.232,1243.78 666.398,1228.11 669,1212.5C 672.142,1205.06 677.642,1202.56 685.5,1205C 689.953,1207.07 691.953,1210.57 691.5,1215.5C 688.387,1232.06 686.054,1248.73 684.5,1265.5 Z"/></g>
<g><path style="opacity:1" fill="#252122" d="M 1253.5,1355.5 C 1252.08,1357.51 1251.41,1359.85 1251.5,1362.5C 1239.18,1407.47 1217.68,1447.47 1187,1482.5C 1151.92,1517.09 1115.42,1549.92 1077.5,1581C 1070.53,1586.97 1063.86,1593.3 1057.5,1600C 1054.49,1602.75 1050.99,1604.59 1047,1605.5C 1040.4,1604.56 1036.9,1600.73 1036.5,1594C 1036.38,1591.46 1037.22,1589.29 1039,1587.5C 1047.83,1578.67 1056.67,1569.83 1065.5,1561C 1095.46,1535.37 1125.13,1509.37 1154.5,1483C 1195.84,1443.5 1222.51,1395.66 1234.5,1339.5C 1235.77,1337.09 1236.43,1334.43 1236.5,1331.5C 1237.17,1325.17 1237.83,1318.83 1238.5,1312.5C 1240.03,1307.75 1240.7,1302.75 1240.5,1297.5C 1240.67,1279.5 1240.5,1261.5 1240,1243.5C 1238.63,1232.83 1237.63,1222.16 1237,1211.5C 1240.28,1205.89 1245.11,1204.06 1251.5,1206C 1255.77,1207.27 1258.27,1210.1 1259,1214.5C 1261.11,1234.67 1263.28,1254.84 1265.5,1275C 1263.65,1302.16 1259.65,1329 1253.5,1355.5 Z"/></g>
<g><path style="opacity:1" fill="#b0aeaf" d="M 1320.5,1212.5 C 1322.41,1216.22 1323.74,1220.22 1324.5,1224.5C 1322.19,1220.92 1320.86,1216.92 1320.5,1212.5 Z"/></g>
<g><path style="opacity:1" fill="#717071" d="M 1593.5,1212.5 C 1594.92,1214.51 1595.59,1216.85 1595.5,1219.5C 1594.08,1217.49 1593.41,1215.15 1593.5,1212.5 Z"/></g>
<g><path style="opacity:1" fill="#afadae" d="M 597.5,1250.5 C 597.59,1253.15 596.924,1255.49 595.5,1257.5C 595.41,1254.85 596.076,1252.51 597.5,1250.5 Z"/></g>
<g><path style="opacity:1" fill="#a09f9f" d="M 595.5,1257.5 C 595.435,1260.43 594.768,1263.09 593.5,1265.5C 593.294,1262.5 593.96,1259.84 595.5,1257.5 Z"/></g>
<g><path style="opacity:1" fill="#6d6b6c" d="M 1654.5,1271.5 C 1654.42,1275.84 1653.42,1279.84 1651.5,1283.5C 1651.9,1279.24 1652.9,1275.24 1654.5,1271.5 Z"/></g>
<g><path style="opacity:1" fill="#504e4e" d="M 1359.5,1275.5 C 1360.66,1279.68 1361.66,1284.01 1362.5,1288.5C 1359.96,1284.65 1358.96,1280.31 1359.5,1275.5 Z"/></g>
<g><path style="opacity:1" fill="#adabac" d="M 684.5,1265.5 C 684.355,1279.18 684.688,1292.85 685.5,1306.5C 683.945,1298.9 683.279,1291.07 683.5,1283C 683.501,1276.99 683.834,1271.16 684.5,1265.5 Z"/></g>
<g><path style="opacity:1" fill="#a4a3a3" d="M 590.5,1278.5 C 590.59,1281.15 589.924,1283.49 588.5,1285.5C 588.41,1282.85 589.076,1280.51 590.5,1278.5 Z"/></g>
<g><path style="opacity:1" fill="#4c4849" d="M 662.5,1259.5 C 662.254,1276.85 662.587,1294.19 663.5,1311.5C 662.71,1310.39 662.21,1309.06 662,1307.5C 661.172,1291.33 661.339,1275.33 662.5,1259.5 Z"/></g>
<g><path style="opacity:1" fill="#5c595a" d="M 1240.5,1297.5 C 1240.7,1302.75 1240.03,1307.75 1238.5,1312.5C 1238.61,1307.29 1239.28,1302.29 1240.5,1297.5 Z"/></g>
<g><path style="opacity:1" fill="#b8b7b7" d="M 583.5,1312.5 C 582.462,1323.39 580.795,1334.06 578.5,1344.5C 579.105,1333.54 580.772,1322.88 583.5,1312.5 Z"/></g>
<g><path style="opacity:1" fill="#767475" d="M 1368.5,1325.5 C 1369.89,1330.27 1370.56,1335.27 1370.5,1340.5C 1369.11,1335.73 1368.44,1330.73 1368.5,1325.5 Z"/></g>
<g><path style="opacity:1" fill="#aeacad" d="M 665.5,1329.5 C 666.581,1332.63 667.247,1335.96 667.5,1339.5C 666.778,1339.08 666.278,1338.42 666,1337.5C 665.503,1334.85 665.336,1332.19 665.5,1329.5 Z"/></g>
<g><path style="opacity:1" fill="#686566" d="M 1236.5,1331.5 C 1236.43,1334.43 1235.77,1337.09 1234.5,1339.5C 1234.29,1336.5 1234.96,1333.84 1236.5,1331.5 Z"/></g>
<g><path style="opacity:1" fill="#5f5c5d" d="M 558.5,1337.5 C 558.126,1345.05 557.126,1352.39 555.5,1359.5C 555.585,1351.91 556.585,1344.58 558.5,1337.5 Z"/></g>
<g><path style="opacity:1" fill="#a19fa0" d="M 1253.5,1355.5 C 1253.59,1358.15 1252.92,1360.49 1251.5,1362.5C 1251.41,1359.85 1252.08,1357.51 1253.5,1355.5 Z"/></g>
<g><path style="opacity:1" fill="#a7a5a6" d="M 673.5,1366.5 C 675.277,1369.5 676.277,1372.84 676.5,1376.5C 674.723,1373.5 673.723,1370.16 673.5,1366.5 Z"/></g>
<g><path style="opacity:1" fill="#6d6a6b" d="M 696.5,1366.5 C 697.924,1368.51 698.59,1370.85 698.5,1373.5C 697.076,1371.49 696.41,1369.15 696.5,1366.5 Z"/></g>
<g><path style="opacity:1" fill="#908f8f" d="M 899.5,1375.5 C 900.738,1377.21 901.405,1379.21 901.5,1381.5C 899.926,1379.9 899.259,1377.9 899.5,1375.5 Z"/></g>
<g><path style="opacity:1" fill="#cecdcd" d="M 1352.5,1373.5 C 1353.87,1382.3 1354.53,1391.3 1354.5,1400.5C 1352.9,1391.72 1352.24,1382.72 1352.5,1373.5 Z"/></g>
<g><path style="opacity:1" fill="#615e5f" d="M 1014.5,1382.5 C 1014.43,1385.43 1013.77,1388.09 1012.5,1390.5C 1012.29,1387.5 1012.96,1384.84 1014.5,1382.5 Z"/></g>
<g><path style="opacity:1" fill="#a19fa0" d="M 906.5,1400.5 C 908.072,1403.22 909.072,1406.22 909.5,1409.5C 907.528,1406.92 906.528,1403.92 906.5,1400.5 Z"/></g>
<g><path style="opacity:1" fill="#5e5c5d" d="M 1004.5,1423.5 C 1004.59,1426.15 1003.92,1428.49 1002.5,1430.5C 1002.41,1427.85 1003.08,1425.51 1004.5,1423.5 Z"/></g>
<g><path style="opacity:1" fill="#bbb9ba" d="M 552.5,1489.5 C 553.972,1493.92 554.638,1498.59 554.5,1503.5C 553.028,1499.08 552.362,1494.41 552.5,1489.5 Z"/></g>
<g><path style="opacity:1" fill="#939192" d="M 1372.5,1494.5 C 1372.5,1498.17 1372.5,1501.83 1372.5,1505.5C 1374.17,1505.5 1375.83,1505.5 1377.5,1505.5C 1375.74,1506.46 1373.74,1506.79 1371.5,1506.5C 1371.18,1502.3 1371.52,1498.3 1372.5,1494.5 Z"/></g>
<g><path style="opacity:1" fill="#676667" d="M 1349.5,1503.5 C 1349.72,1508.1 1349.05,1512.43 1347.5,1516.5C 1347.44,1511.92 1348.1,1507.59 1349.5,1503.5 Z"/></g>
<g><path style="opacity:1" fill="#aba9aa" d="M 944.5,1520.5 C 946.739,1525.22 948.405,1530.22 949.5,1535.5C 946.86,1530.92 945.194,1525.92 944.5,1520.5 Z"/></g>
<g><path style="opacity:1" fill="#9c9c9c" d="M 1365.5,1536.5 C 1364.26,1541.41 1363.43,1546.41 1363,1551.5C 1362.72,1552.42 1362.22,1553.08 1361.5,1553.5C 1361.73,1547.45 1363.07,1541.79 1365.5,1536.5 Z"/></g>
<g><path style="opacity:1" fill="#706e6f" d="M 1341.5,1546.5 C 1341.59,1549.15 1340.92,1551.49 1339.5,1553.5C 1339.41,1550.85 1340.08,1548.51 1341.5,1546.5 Z"/></g>
<g><path style="opacity:1" fill="#a19fa0" d="M 953.5,1551.5 C 954.924,1553.51 955.59,1555.85 955.5,1558.5C 954.076,1556.49 953.41,1554.15 953.5,1551.5 Z"/></g>
<g><path style="opacity:1" fill="#717070" d="M 585.5,1553.5 C 586.924,1555.51 587.59,1557.85 587.5,1560.5C 586.076,1558.49 585.41,1556.15 585.5,1553.5 Z"/></g>
<g><path style="opacity:1" fill="#918f90" d="M 961.5,1586.5 C 962.785,1589.59 963.451,1592.92 963.5,1596.5C 961.989,1593.46 961.322,1590.12 961.5,1586.5 Z"/></g>
<g><path style="opacity:1" fill="#393737" d="M 807.5,1592.5 C 807.633,1609.99 807.799,1627.66 808,1645.5C 808.642,1649.49 809.142,1653.49 809.5,1657.5C 808.144,1654.42 807.311,1651.09 807,1647.5C 806.417,1629.16 806.584,1610.83 807.5,1592.5 Z"/></g>
<g><path style="opacity:1" fill="#a1a1a1" d="M 987.5,1647.5 C 987.664,1650.19 987.497,1652.85 987,1655.5C 986.722,1656.42 986.222,1657.08 985.5,1657.5C 985.549,1653.92 986.215,1650.59 987.5,1647.5 Z"/></g>
<g><path style="opacity:1" fill="#7c7b7b" d="M 1124.5,1650.5 C 1124.57,1654.57 1123.57,1658.24 1121.5,1661.5C 1122.06,1657.6 1123.06,1653.94 1124.5,1650.5 Z"/></g>
<g><path style="opacity:1" fill="#999798" d="M 722.5,1673.5 C 725.495,1673.29 728.162,1673.96 730.5,1675.5C 727.572,1675.43 724.905,1674.77 722.5,1673.5 Z"/></g>
<g><path style="opacity:1" fill="#635f60" d="M 1088.5,1697.5 C 1086.97,1699.25 1084.97,1700.25 1082.5,1700.5C 1084.03,1698.75 1086.03,1697.75 1088.5,1697.5 Z"/></g>
<g><path style="opacity:1" fill="#928f90" d="M 729.5,1698.5 C 732.428,1698.57 735.095,1699.23 737.5,1700.5C 734.505,1700.71 731.838,1700.04 729.5,1698.5 Z"/></g>
<g><path style="opacity:1" fill="#bcbbbc" d="M 794.5,1699.5 C 782.26,1702.32 769.927,1702.99 757.5,1701.5C 769.881,1701.6 782.214,1700.93 794.5,1699.5 Z"/></g>
<g><path style="opacity:1" fill="#b2b0b1" d="M 867.5,1713.5 C 878.817,1714.26 890.15,1714.59 901.5,1714.5C 897.18,1715.17 892.68,1715.5 888,1715.5C 880.936,1715.66 874.103,1714.99 867.5,1713.5 Z"/></g>
<g><path style="opacity:1" fill="#aba9aa" d="M 1091.5,1720.5 C 1089.97,1722.25 1087.97,1723.25 1085.5,1723.5C 1087.03,1721.75 1089.03,1720.75 1091.5,1720.5 Z"/></g>
<g><path style="opacity:1" fill="#4d4a4b" d="M 1032.5,1726.5 C 1043.48,1727.29 1054.48,1727.62 1065.5,1727.5C 1061.35,1728.17 1057.01,1728.5 1052.5,1728.5C 1045.6,1728.65 1038.94,1727.99 1032.5,1726.5 Z"/></g>
<g><path style="opacity:1" fill="#5f5d5e" d="M 864.5,1736.5 C 875.484,1737.25 886.484,1737.58 897.5,1737.5C 893.347,1738.17 889.013,1738.5 884.5,1738.5C 877.602,1738.65 870.936,1737.99 864.5,1736.5 Z"/></g>
<g><path style="opacity:1" fill="#242021" d="M -0.5,1900.5 C 3.16667,1900.5 6.83333,1900.5 10.5,1900.5C 10.5,1906.83 10.5,1913.17 10.5,1919.5C 6.83333,1919.5 3.16667,1919.5 -0.5,1919.5C -0.5,1913.17 -0.5,1906.83 -0.5,1900.5 Z"/></g>
<g><path style="opacity:1" fill="#a8a6a7" d="M -0.5,1900.5 C -0.5,1900.17 -0.5,1899.83 -0.5,1899.5C 3.5,1899.5 7.5,1899.5 11.5,1899.5C 11.5,1906.17 11.5,1912.83 11.5,1919.5C 11.1667,1919.5 10.8333,1919.5 10.5,1919.5C 10.5,1913.17 10.5,1906.83 10.5,1900.5C 6.83333,1900.5 3.16667,1900.5 -0.5,1900.5 Z"/></g>
</svg>
