<?xml version="1.0" encoding="UTF-8" standalone="no"?>
<!DOCTYPE svg PUBLIC "-//W3C//DTD SVG 1.1//EN" "http://www.w3.org/Graphics/SVG/1.1/DTD/svg11.dtd">
<svg width="100%" height="100%" viewBox="0 0 9484 8242" version="1.1" xmlns="http://www.w3.org/2000/svg" xmlns:xlink="http://www.w3.org/1999/xlink" xml:space="preserve" xmlns:serif="http://www.serif.com/" style="fill-rule:evenodd;clip-rule:evenodd;stroke-linejoin:round;stroke-miterlimit:2;">
    <g transform="matrix(4.16667,0,0,4.16667,0,0)">
        <path d="M2034.64,1305.62C1962.46,1282.64 1888.93,1263.99 1814.59,1249.54C1814.42,1249.51 1814.25,1249.48 1814.08,1249.45C1812.23,1216.66 1809.65,1183.94 1806.47,1151.27C1838.75,1150.03 1871.07,1149.81 1903.36,1150.61C1945.56,1151.66 1987.71,1154.5 2029.67,1159.09C2038.19,1160.02 2038.13,1146.66 2029.67,1145.74C1955.15,1137.6 1880.05,1135.04 1805.14,1137.98C1797.69,1065.02 1787.32,992.336 1775.38,919.969C1739.53,702.559 1702.87,497.035 1643.45,284.449C1639.68,270.973 1635.34,256.609 1624.48,247.785C1601.37,229.004 1567.22,246.691 1544.45,265.891C1471.98,327.016 1413.91,405.098 1376.22,492.09C1308.2,449.535 1207.16,437.609 1116.45,438.82C1025.73,437.609 924.691,449.535 856.668,492.09C818.98,405.098 760.906,327.016 688.434,265.891C665.672,246.691 631.516,229.004 608.406,247.785C597.547,256.609 593.215,270.973 589.441,284.449C530.02,497.035 493.359,702.559 457.512,919.969C445.637,991.977 435.309,1064.3 427.855,1136.9C409.594,1136.69 391.32,1136.8 373.063,1137.25C330.531,1138.27 288.059,1141.13 245.766,1145.74C237.32,1146.66 237.227,1160.02 245.766,1159.09C305.777,1152.53 366.164,1149.59 426.523,1150.23C423.012,1186.18 420.23,1222.2 418.332,1258.28C399.918,1262.27 381.559,1266.52 363.262,1271.04C322.07,1281.22 281.223,1292.75 240.797,1305.62C232.645,1308.21 236.129,1321.11 244.344,1318.48C301.313,1300.35 359.125,1284.91 417.52,1272.1C413.336,1338.73 397.84,1563.75 427.621,1583.73C779.996,1820.23 1618.13,1755.74 1805.27,1583.73C1833.04,1558.21 1817.67,1314.84 1814.82,1263.13C1846.57,1269.37 1878.18,1276.38 1909.58,1284.15C1950.45,1294.26 1990.97,1305.71 2031.09,1318.48C2039.29,1321.1 2042.8,1308.22 2034.64,1305.62Z" style="fill:url(#_Linear1);fill-rule:nonzero;"/>
        <path d="M887.254,743.727C873.051,739.035 857.977,736.016 842.211,734.926C775.41,730.301 715.977,762.273 679.605,810.883C641.922,861.242 629,929.457 658.297,993.332C685.785,1053.25 744.719,1097.36 809.785,1107.96C840.254,1112.92 872.266,1110.53 901.254,1100.29C917.277,1094.63 918.547,1070.75 931.953,1060.2C977.285,1024.54 987.383,982.629 989.203,926.613C991.902,843.777 947.719,803.813 887.254,743.727Z" style="fill:rgb(150,171,91);fill-rule:nonzero;"/>
        <path d="M1506.25,743.727C1492.04,739.035 1476.97,736.016 1461.21,734.926C1394.41,730.301 1334.97,762.273 1298.6,810.883C1260.92,861.242 1248,929.457 1277.29,993.332C1304.78,1053.25 1363.71,1097.36 1428.78,1107.96C1459.25,1112.92 1491.26,1110.53 1520.25,1100.29C1536.27,1094.63 1534.21,1071.58 1547.63,1061.04C1592.96,1025.37 1608.04,980.141 1609.86,924.125C1612.55,841.285 1561.73,807.961 1506.25,743.727Z" style="fill:rgb(150,171,91);fill-rule:nonzero;"/>
        <path d="M766.68,821.379C791.363,826.129 809.25,851.418 807.504,877.469C806.266,895.934 796.832,913.211 783.859,926.41C770.953,939.539 751.684,949.34 734.379,943.766C740.063,992.688 765.82,1039.43 806.328,1067.52C834.23,1086.87 867.281,1097.06 901.254,1100.29C917.277,1094.63 932.375,1086.57 945.781,1076.02C991.113,1040.35 1010.64,981.887 1012.46,925.875C1015.17,843.035 963.867,769.035 887.254,743.727C881.602,744.773 875.988,746.078 870.434,747.648C828.809,759.434 791.758,786.277 766.68,821.379Z" style="fill:rgb(30,23,38);fill-rule:nonzero;"/>
        <path d="M1385.57,821.535C1409.85,826.656 1427.34,851.688 1425.62,877.469C1424.38,895.934 1414.95,913.211 1401.98,926.41C1389.29,939.309 1370.48,948.996 1353.41,944.047C1359.15,992.863 1384.89,1039.49 1425.32,1067.52C1453.23,1086.87 1486.28,1097.06 1520.25,1100.29C1536.27,1094.63 1551.38,1086.57 1564.78,1076.02C1610.11,1040.35 1629.64,981.887 1631.46,925.875C1634.16,843.035 1582.87,769.035 1506.25,743.727C1500.59,744.773 1494.98,746.078 1489.43,747.648C1447.75,759.449 1410.64,786.355 1385.57,821.535Z" style="fill:rgb(30,23,38);fill-rule:nonzero;"/>
        <path d="M734.18,592.031C750.645,572.578 764.328,551.898 769.941,531.574C777.406,504.531 678.828,363.109 649.516,336.18C628.934,317.27 622.926,319.301 613.047,344.16C604.746,365.051 533.406,664.68 555.223,734.48C574.109,732.652 655.262,669.449 673.656,652.574C692.016,635.73 714.984,614.711 734.18,592.031Z" style="fill:rgb(210,156,186);fill-rule:nonzero;"/>
        <path d="M1497.29,592.031C1516.48,614.711 1539.45,635.73 1557.81,652.574C1576.21,669.449 1657.36,732.652 1676.25,734.48C1698.06,664.68 1626.72,365.051 1618.42,344.16C1608.55,319.301 1602.53,317.27 1581.95,336.18C1552.64,363.109 1454.06,504.531 1461.53,531.574C1467.14,551.898 1480.83,572.578 1497.29,592.031Z" style="fill:rgb(210,156,186);fill-rule:nonzero;"/>
        <path d="M1155.17,1313.88C1149.62,1304.75 1145.64,1280.94 1142.23,1269.51C1143.2,1251.2 1142.64,1233.68 1143.6,1215.36C1148.93,1213.98 1153.74,1211.25 1156.99,1207.14C1165.59,1196.29 1166.83,1177.51 1178.04,1170.86C1185.18,1166.63 1193.69,1169.15 1201.63,1168.35C1223.98,1166.11 1248.96,1120.17 1227.21,1101.23C1180.24,1060.36 1090.23,1060.18 1043.05,1101.24C1021.31,1120.17 1046.29,1166.11 1068.64,1168.35C1076.58,1169.15 1085.1,1166.63 1092.24,1170.86C1103.45,1177.51 1104.68,1196.29 1113.28,1207.15C1116.46,1211.16 1121.16,1213.87 1126.38,1215.28C1127.37,1232.14 1126.3,1252.48 1128.3,1268.93C1124.94,1282.12 1120.98,1304.82 1114.69,1315.13C1086.92,1360.74 1045.92,1366.04 1005.9,1364.79C975.398,1363.83 944.758,1355 917.477,1332.71C948.488,1380.47 995.945,1386.58 1037.05,1383.21C1061.96,1381.15 1087,1372.57 1108.82,1353.44C1116.49,1346.72 1123.86,1338.52 1129,1327.29C1132,1320.73 1133.88,1313.36 1135.1,1305.64C1136.3,1313.36 1138.19,1320.73 1141.19,1327.29C1146.33,1338.52 1153.7,1346.72 1161.37,1353.44C1183.19,1372.57 1208.22,1381.15 1233.14,1383.21C1274.24,1386.58 1321.7,1380.47 1352.71,1332.71C1325.43,1355 1294.79,1363.83 1264.29,1364.79C1224.26,1366.04 1182.95,1359.49 1155.17,1313.88Z" style="fill:rgb(30,23,38);fill-rule:nonzero;"/>
        <path d="M1126.38,1215.28C1135.24,1217.67 1138.42,1216.7 1143.6,1215.36C1148.93,1213.98 1153.74,1211.25 1156.99,1207.14C1165.59,1196.29 1166.83,1177.51 1178.04,1170.86C1185.18,1166.63 1193.69,1169.15 1201.63,1168.35C1223.98,1166.11 1248.96,1120.17 1227.21,1101.23C1180.24,1060.36 1090.23,1060.18 1043.05,1101.24C1021.31,1120.17 1046.29,1166.11 1068.64,1168.35C1076.58,1169.15 1085.1,1166.63 1092.24,1170.86C1103.45,1177.51 1104.68,1196.29 1113.28,1207.15C1116.46,1211.16 1121.16,1213.87 1126.38,1215.28Z" style="fill:rgb(210,156,186);fill-rule:nonzero;"/>
        <path d="M1578.49,1163.95C1537.51,1171.82 1496.88,1181.47 1456.75,1192.91C1448.51,1195.25 1452.01,1208.13 1460.3,1205.77C1531.63,1185.45 1604.57,1170.73 1678.2,1161.64C1720.78,1156.38 1763.59,1152.93 1806.47,1151.27C1838.75,1150.03 1871.07,1149.81 1903.36,1150.61C1945.56,1151.66 1987.71,1154.5 2029.67,1159.09C2038.19,1160.02 2038.13,1146.66 2029.67,1145.74C1955.15,1137.6 1880.05,1135.04 1805.14,1137.98C1804.52,1138.01 1803.9,1138.03 1803.27,1138.05C1727.86,1141.12 1652.62,1149.71 1578.49,1163.95Z" style="fill:rgb(30,23,38);fill-rule:nonzero;"/>
        <path d="M2034.64,1305.62C1962.46,1282.64 1888.93,1263.99 1814.59,1249.54C1814.42,1249.51 1814.25,1249.48 1814.08,1249.45C1738.73,1234.82 1662.53,1224.44 1586.02,1218.27C1542.54,1214.75 1498.95,1212.63 1455.33,1211.83C1446.74,1211.68 1446.74,1225.02 1455.33,1225.18C1532.06,1226.57 1608.7,1232.14 1684.8,1241.98C1728.36,1247.6 1771.73,1254.66 1814.82,1263.13C1846.57,1269.37 1878.18,1276.38 1909.58,1284.15C1950.45,1294.26 1990.97,1305.71 2031.09,1318.48C2039.29,1321.1 2042.8,1308.22 2034.64,1305.62Z" style="fill:rgb(30,23,38);fill-rule:nonzero;"/>
        <path d="M1459.11,1234.29C1451.32,1230.89 1444.52,1242.38 1452.38,1245.81C1548.3,1287.59 1640.15,1339.05 1724.56,1400.96C1747.35,1417.68 1769.54,1435.19 1791.12,1453.45C1797.63,1458.96 1807.12,1449.57 1800.55,1444.01C1721.46,1377.08 1634.1,1320.26 1541.82,1273.27C1514.66,1259.43 1487.05,1246.46 1459.11,1234.29Z" style="fill:rgb(30,23,38);fill-rule:nonzero;"/>
        <path d="M694.355,1177C735.008,1184.84 775.316,1194.43 815.137,1205.77C823.406,1208.13 826.941,1195.26 818.684,1192.91C747.117,1172.51 674,1157.93 600.176,1148.66C543.023,1141.48 485.457,1137.57 427.855,1136.9C409.594,1136.69 391.32,1136.8 373.063,1137.25C330.531,1138.27 288.059,1141.13 245.766,1145.74C237.32,1146.66 237.227,1160.02 245.766,1159.09C305.777,1152.53 366.164,1149.59 426.523,1150.23C441.41,1150.39 456.293,1150.76 471.164,1151.36C546.066,1154.36 620.742,1162.81 694.355,1177Z" style="fill:rgb(30,23,38);fill-rule:nonzero;"/>
        <path d="M690.414,1231.53C733.563,1228.06 776.824,1225.96 820.105,1225.18C828.68,1225.02 828.707,1211.68 820.105,1211.83C742.711,1213.24 665.402,1218.89 588.641,1228.89C531.496,1236.33 474.652,1246.08 418.332,1258.28C399.918,1262.27 381.559,1266.52 363.262,1271.04C322.07,1281.22 281.223,1292.75 240.797,1305.62C232.645,1308.21 236.129,1321.11 244.344,1318.48C301.313,1300.35 359.125,1284.91 417.52,1272.1C432.457,1268.82 447.434,1265.72 462.441,1262.79C537.766,1248.07 613.914,1237.67 690.414,1231.53Z" style="fill:rgb(30,23,38);fill-rule:nonzero;"/>
        <path d="M816.324,1234.29C719.578,1276.43 626.969,1328.41 541.965,1391.04C519.02,1407.95 496.637,1425.61 474.883,1444.01C468.32,1449.57 477.801,1458.96 484.316,1453.45C562.766,1387.06 649.637,1330.91 741.188,1284.36C768.086,1270.68 795.395,1257.85 823.059,1245.81C830.91,1242.38 824.125,1230.89 816.324,1234.29Z" style="fill:rgb(30,23,38);fill-rule:nonzero;"/>
    </g>
    <defs>
        <linearGradient id="_Linear1" x1="0" y1="0" x2="1" y2="0" gradientUnits="userSpaceOnUse" gradientTransform="matrix(901.56,0,0,901.56,1137.72,988.824)"><stop offset="0" style="stop-color:white;stop-opacity:1"/><stop offset="0.47" style="stop-color:rgb(204,202,207);stop-opacity:1"/><stop offset="1" style="stop-color:rgb(65,58,76);stop-opacity:1"/></linearGradient>
    </defs>
</svg>
